<?xml version="1.0" standalone="no"?>
<!DOCTYPE svg PUBLIC "-//W3C//DTD SVG 20010904//EN"
 "http://www.w3.org/TR/2001/REC-SVG-20010904/DTD/svg10.dtd">
<svg version="1.0" xmlns="http://www.w3.org/2000/svg"
 width="512.000000pt" height="512.000000pt" viewBox="0 0 512.000000 512.000000"
 preserveAspectRatio="xMidYMid meet">
<metadata>
Created by potrace 1.12, written by Peter Selinger 2001-2015
</metadata>
<g transform="translate(0.000000,512.000000) scale(0.100000,-0.100000)"
fill="#000000" stroke="none">
<path d="M2385 5106 c-67 -21 -101 -43 -143 -91 -76 -86 -72 -24 -72 -1102 0
-1036 1 -1016 -50 -1043 -39 -21 -90 -15 -119 14 l-26 26 -5 793 -5 792 -26
55 c-14 30 -41 70 -60 89 -141 140 -389 94 -473 -88 -21 -46 -21 -48 -26
-1312 l-5 -1267 -190 261 c-235 322 -270 366 -331 404 -148 94 -339 79 -449
-34 -101 -104 -127 -275 -62 -415 31 -67 970 -1489 1045 -1583 258 -322 619
-514 1089 -581 136 -19 436 -26 573 -13 739 70 1195 506 1270 1216 7 64 10
577 8 1493 l-3 1395 -23 46 c-109 222 -420 222 -529 1 l-28 -57 -2 -625 c-2
-344 -3 -656 -3 -693 0 -62 -3 -71 -29 -98 -40 -40 -89 -40 -133 0 l-33 29 -2
959 c-1 527 -4 977 -7 1001 -24 189 -253 300 -425 206 -62 -33 -96 -70 -128
-141 l-24 -52 -2 -883 c-2 -952 0 -910 -53 -939 -47 -25 -111 -8 -134 37 -10
19 -13 232 -14 1001 l-1 978 -26 56 c-30 64 -84 120 -143 148 -53 26 -149 34
-201 17z"/>
</g>
</svg>
