<?xml version="1.0" encoding="UTF-8" standalone="no"?>
<!-- Generated by IcoMoon.io -->

<svg
   xmlns:dc="http://purl.org/dc/elements/1.1/"
   xmlns:cc="http://creativecommons.org/ns#"
   xmlns:rdf="http://www.w3.org/1999/02/22-rdf-syntax-ns#"
   xmlns:svg="http://www.w3.org/2000/svg"
   xmlns="http://www.w3.org/2000/svg"
   xmlns:sodipodi="http://sodipodi.sourceforge.net/DTD/sodipodi-0.dtd"
   xmlns:inkscape="http://www.inkscape.org/namespaces/inkscape"
   version="1.1"
   width="22"
   height="22"
   viewBox="0 0 22 22"
   id="svg2"
   inkscape:version="0.91 r13725"
   sodipodi:docname="delete_icon.svg">
  <metadata
     id="metadata10">
    <rdf:RDF>
      <cc:Work
         rdf:about="">
        <dc:format>image/svg+xml</dc:format>
        <dc:type
           rdf:resource="http://purl.org/dc/dcmitype/StillImage" />
        <dc:title></dc:title>
        <cc:license
           rdf:resource="http://artlibre.org/licence/lal" />
      </cc:Work>
      <cc:License
         rdf:about="http://artlibre.org/licence/lal">
        <cc:permits
           rdf:resource="http://creativecommons.org/ns#Reproduction" />
        <cc:permits
           rdf:resource="http://creativecommons.org/ns#Distribution" />
        <cc:permits
           rdf:resource="http://creativecommons.org/ns#DerivativeWorks" />
        <cc:requires
           rdf:resource="http://creativecommons.org/ns#ShareAlike" />
        <cc:requires
           rdf:resource="http://creativecommons.org/ns#Notice" />
        <cc:requires
           rdf:resource="http://creativecommons.org/ns#Attribution" />
      </cc:License>
    </rdf:RDF>
  </metadata>
  <defs
     id="defs8" />
  <sodipodi:namedview
     pagecolor="#ffffff"
     bordercolor="#666666"
     borderopacity="1"
     objecttolerance="10"
     gridtolerance="10"
     guidetolerance="10"
     inkscape:pageopacity="0"
     inkscape:pageshadow="2"
     inkscape:window-width="1366"
     inkscape:window-height="742"
     id="namedview6"
     showgrid="false"
     inkscape:zoom="10.727273"
     inkscape:cx="11"
     inkscape:cy="11"
     inkscape:window-x="0"
     inkscape:window-y="1"
     inkscape:window-maximized="1"
     inkscape:current-layer="svg2"
     showguides="false" />
  <path
     fill="#444444"
     d="M20 4h-1v16c0 1.104-0.896 2-2 2h-12c-1.104 0-2-0.896-2-2v-16h-1c-0.552 0-1-0.447-1-1s0.448-1 1-1h6c0-1.104 0.896-2 2-2h2c1.104 0 2 0.896 2 2h6c0.553 0 1 0.447 1 1s-0.447 1-1 1zM17 4h-12v16h12v-16zM9 6c0.552 0 1 0.447 1 1v10c0 0.553-0.448 1-1 1s-1-0.447-1-1v-10c0-0.553 0.448-1 1-1zM13 6c0.553 0 1 0.447 1 1v10c0 0.553-0.447 1-1 1s-1-0.447-1-1v-10c0-0.553 0.447-1 1-1z"
     id="path4" />
  <path
     style="fill:#000000"
     d="M 4.1091181,21.702234 C 3.7461558,21.51262 3.5340308,21.318078 3.3294053,20.987154 L 3.0483051,20.532551 3.0221256,12.261913 2.9959459,3.991274 2.2899647,3.9556237 C 1.6316479,3.9223802 1.5657572,3.8995745 1.3140256,3.6178379 0.8924702,3.1460355 0.98645294,2.5324936 1.531151,2.2003913 1.8200798,2.0242315 2.0025517,2.0142376 4.9360169,2.0139078 7.3530671,2.013636 8.0357077,1.9879004 8.0361131,1.8970339 8.03756,1.5727269 8.2643845,1.0396087 8.5292857,0.73790289 9.0456509,0.14979548 9.3744247,0.06030753 11.027287,0.05797951 c 1.343913,-0.0018928 1.484549,0.01431416 1.864407,0.21485527 0.486339,0.25675716 0.92831,0.84342482 1.008752,1.33901012 l 0.05764,0.3551043 3.167991,0.04661 c 3.481703,0.051226 3.50303,0.05477 3.739796,0.6214297 0.109356,0.2617268 0.115149,0.3915442 0.02911,0.6522536 C 20.737052,3.7657714 20.340889,3.970412 19.57161,3.970838 l -0.629237,3.484e-4 -0.0021,8.2266946 c -0.0019,7.75578 -0.01176,8.248086 -0.171807,8.600376 -0.213502,0.46997 -0.740354,0.938374 -1.198598,1.065629 -0.22965,0.06377 -2.545098,0.09797 -6.657157,0.09831 l -6.3050294,5.2e-4 -0.4986125,-0.260478 z m 12.9688479,-9.714098 0,-8.0169496 -6.059322,0 -6.059322,0 0,8.0169496 0,8.016949 6.059322,0 6.059322,0 0,-8.016949 z"
     id="path3338"
     inkscape:connector-curvature="0" />
  <path
     style="fill:#000000"
     d="m 8.3866402,17.682223 -0.3044368,-0.272014 0,-5.406916 0,-5.4069167 L 8.306858,6.3572425 C 8.6049114,6.0399792 9.0476745,5.9621403 9.4299174,6.1598058 c 0.5652381,0.292296 0.5633177,0.2723515 0.5631581,5.8486412 -1.305e-4,4.631289 -0.01396,5.087742 -0.1631356,5.385172 -0.3035271,0.605179 -0.9453535,0.733519 -1.4432997,0.288604 z"
     id="path3340"
     inkscape:connector-curvature="0" />
  <path
     style="fill:#000000"
     d="m 12.372942,17.649213 c -0.103089,-0.120366 -0.254527,-0.220705 -0.328874,-0.352976 0,-3.539573 0,-7.079146 0,-10.6187193 0.259022,-0.3028108 0.559907,-0.6479499 0.998519,-0.6236044 0.499362,-0.00736 0.915617,0.461899 0.887875,0.9531472 0.09457,2.554559 0.07479,5.1120525 0.05952,7.6679325 -0.0198,0.847423 3.03e-4,1.698784 -0.08255,2.542812 -0.08374,0.488041 -0.577744,0.749628 -1.040048,0.726937 -0.209702,0.0069 -0.356656,-0.162899 -0.494444,-0.295529 z"
     id="path3342"
     inkscape:connector-curvature="0" />
</svg>
